<svg xmlns="http://www.w3.org/2000/svg" width="62.58" height="70.448"><path d="M61.075 42.938a1.505 1.505 0 00-1.505 1.505v18.689H47.144V37.157h13.931a1.506 1.506 0 100-3.011H45.638a1.505 1.505 0 00-1.505 1.505v.762l-9.586-9.586a5.126 5.126 0 00-5.413-1.173 15.918 15.918 0 00-3.42-25.47 1.505 1.505 0 00-2.226 1.321V14.9H12.702V1.5A1.505 1.505 0 0010.476.183a15.919 15.919 0 00-2.637 26.176v3.922h-2.72A5.125 5.125 0 00.002 35.4v.073a5.1 5.1 0 001.5 3.614 5.1 5.1 0 00-1.5 3.613v.073a5.1 5.1 0 001.5 3.614A5.1 5.1 0 00.002 50v.073a5.1 5.1 0 001.5 3.614 5.1 5.1 0 00-1.5 3.614v.073a5.125 5.125 0 005.12 5.12h2.963a10.188 10.188 0 009.925 7.949h.175a10.184 10.184 0 009.917-7.943h12.019a1.506 1.506 0 100-3.011h-11.77V47.065a1.506 1.506 0 00-3.011 0v13.214a7.166 7.166 0 01-7.158 7.158h-.175a7.174 7.174 0 01-6.805-4.937h2.369a5.125 5.125 0 005.12-5.12v-.073a5.1 5.1 0 00-1.5-3.614 5.1 5.1 0 001.5-3.614V50a5.1 5.1 0 00-1.5-3.614 5.1 5.1 0 001.5-3.614V42.7a5.1 5.1 0 00-1.5-3.614 5.1 5.1 0 001.5-3.614V35.4a5.125 5.125 0 00-5.12-5.12h-2.72v-4.643a1.505 1.505 0 00-.59-1.2 12.906 12.906 0 01-.569-20.076V16.41a1.505 1.505 0 001.51 1.505h13.8a1.505 1.505 0 001.5-1.505V4.361a12.906 12.906 0 01-.568 20.081 1.506 1.506 0 00-.59 1.2V28.8l-4.012 4a5.119 5.119 0 000 7.24l.052.052a5.125 5.125 0 007.24 0l3-3a1.505 1.505 0 00-2.132-2.122l-3 3a2.111 2.111 0 01-2.982 0l-.052-.052a2.108 2.108 0 010-2.983l5.975-5.975a2.11 2.11 0 012.98 0l11.72 11.712v23.965a1.505 1.505 0 001.505 1.505h15.437a1.505 1.505 0 001.505-1.505V44.443a1.505 1.505 0 00-1.505-1.505zm-45.4-.236v.073a2.111 2.111 0 01-2.109 2.109h-8.45a2.111 2.111 0 01-2.109-2.109V42.7a2.111 2.111 0 012.109-2.109h8.45a2.111 2.111 0 012.113 2.109zm0 7.3v.073a2.111 2.111 0 01-2.109 2.109h-8.45a2.111 2.111 0 01-2.109-2.109V50a2.111 2.111 0 012.109-2.109h8.45A2.111 2.111 0 0115.679 50zm0 7.374a2.111 2.111 0 01-2.109 2.109h-8.45a2.111 2.111 0 01-2.109-2.109v-.073A2.111 2.111 0 015.12 55.2h8.45a2.111 2.111 0 012.109 2.109v.073zm0-21.978v.073a2.111 2.111 0 01-2.109 2.109h-8.45a2.111 2.111 0 01-2.109-2.109V35.4a2.111 2.111 0 012.109-2.109h8.45a2.111 2.111 0 012.113 2.109z"/></svg>