<svg xmlns="http://www.w3.org/2000/svg" width="42" height="42"><g fill="none" stroke="#fcd400"><rect width="42" height="42" rx="21" stroke="none"/><rect x=".5" y=".5" width="41" height="41" rx="20.5"/></g><path d="M15.966 20.1a14.265 14.265 0 006.17 6.345l2.057-2.115a.73.73 0 01.935-.192 9.537 9.537 0 003.366.577.838.838 0 01.654.288.884.884 0 01.28.673v3.365a.885.885 0 01-.28.673.838.838 0 01-.654.288A15.114 15.114 0 0117.275 25.2 15.978 15.978 0 0112.6 13.661a.884.884 0 01.28-.673.838.838 0 01.654-.288h3.272a.838.838 0 01.654.288.884.884 0 01.28.673 11.166 11.166 0 00.561 3.461 1.073 1.073 0 01-.187.961z"/></svg>