<svg xmlns="http://www.w3.org/2000/svg" width="49.39" height="73.463"><g fill="#fcd400"><path d="M43.51 2.352h-5.88A2.354 2.354 0 0035.279 0H14.111a2.354 2.354 0 00-2.351 2.352H5.88A5.886 5.886 0 000 8.232V55.27a3.532 3.532 0 003.528 3.53h5.017L1.314 72.355l2.077 1.107 8-14.993a1.16 1.16 0 00.249-.322l.85-1.7h3.193l-8.49 15.908 2.077 1.107 2.8-5.257h25.246l2.8 5.258 2.084-1.107-8.489-15.91H36.9l.851 1.7a1.155 1.155 0 00.249.322l8 14.993 2.077-1.107L40.846 58.8h5.017a3.532 3.532 0 003.527-3.53V8.232a5.886 5.886 0 00-5.88-5.88zM2.352 35.279h44.686V49.39H2.352zm44.686-2.352H2.352V14.111h44.686zM14.111 2.352h21.168v4.7H14.111zM5.88 4.7h5.88v2.356a2.354 2.354 0 002.352 2.352h21.167a2.354 2.354 0 002.351-2.352V4.7h5.88a3.532 3.532 0 013.528 3.528v3.532H2.352V8.232A3.532 3.532 0 015.88 4.7zm7.448 61.149l1.255-2.349h20.225l1.255 2.352zm20.225-4.7H15.837l2.508-4.7h12.7zm12.309-4.7h-6.271l-.922-1.73a1.175 1.175 0 00-1.035-.624H11.76a1.175 1.175 0 00-1.035.624l-.922 1.73H3.528a1.177 1.177 0 01-1.176-1.176v-3.531h44.686v3.528a1.177 1.177 0 01-1.176 1.176z"/><path d="M12.936 37.63H5.88a1.176 1.176 0 00-1.176 1.176v7.056a1.176 1.176 0 001.176 1.176h7.056a1.176 1.176 0 001.176-1.176v-7.056a1.176 1.176 0 00-1.176-1.176zm-1.176 7.056h-4.7v-4.7h4.7z"/><path d="M43.511 37.63h-7.056a1.176 1.176 0 00-1.176 1.176v7.056a1.176 1.176 0 001.176 1.176h7.056a1.176 1.176 0 001.176-1.176v-7.056a1.176 1.176 0 00-1.176-1.176zm-1.176 7.056h-4.7v-4.7h4.7z"/><path d="M4.704 31.75h39.982a1.176 1.176 0 001.176-1.176V16.463a1.176 1.176 0 00-1.176-1.176H4.704a1.176 1.176 0 00-1.176 1.176v14.111a1.176 1.176 0 001.176 1.176zM5.88 17.639h37.63v11.76H5.88z"/><path d="M30.574 38.806H18.815a3.528 3.528 0 100 7.056h11.76a3.528 3.528 0 000-7.056zm0 4.7H18.815a1.176 1.176 0 110-2.352h11.76a1.176 1.176 0 010 2.352z"/><path d="M8.571 26.215l7.056-7.056 1.663 1.664-7.056 7.055z"/><path d="M20.329 26.216l7.056-7.056 1.663 1.664-7.056 7.055z"/><path d="M32.087 26.218l7.056-7.056 1.663 1.664-7.056 7.055z"/></g></svg>