<?xml version="1.0" encoding="UTF-8"?><!DOCTYPE svg PUBLIC "-//W3C//DTD SVG 1.1//EN" "http://www.w3.org/Graphics/SVG/1.1/DTD/svg11.dtd"><svg xmlns="http://www.w3.org/2000/svg" xmlns:xlink="http://www.w3.org/1999/xlink"><symbol id="icon-arrow-down"><path d="M4.842 35.2L.001 27.789h3.631V0h2.421v27.79h3.63z" fill="#fff"/></symbol><symbol id="icon-facebook" viewBox="0 0 24 24"><path d="m15.997 3.985h2.191v-3.816c-.378-.052-1.678-.169-3.192-.169-3.159 0-5.323 1.987-5.323 5.639v3.361h-3.486v4.266h3.486v10.734h4.274v-10.733h3.345l.531-4.266h-3.877v-2.939c.001-1.233.333-2.077 2.051-2.077z"/></symbol><symbol id="icon-instagram" viewBox="0 0 511 511.9"><path d="m510.949219 150.5c-1.199219-27.199219-5.597657-45.898438-11.898438-62.101562-6.5-17.199219-16.5-32.597657-29.601562-45.398438-12.800781-13-28.300781-23.101562-45.300781-29.5-16.296876-6.300781-34.898438-10.699219-62.097657-11.898438-27.402343-1.300781-36.101562-1.601562-105.601562-1.601562s-78.199219.300781-105.5 1.5c-27.199219 1.199219-45.898438 5.601562-62.097657 11.898438-17.203124 6.5-32.601562 16.5-45.402343 29.601562-13 12.800781-23.097657 28.300781-29.5 45.300781-6.300781 16.300781-10.699219 34.898438-11.898438 62.097657-1.300781 27.402343-1.601562 36.101562-1.601562 105.601562s.300781 78.199219 1.5 105.5c1.199219 27.199219 5.601562 45.898438 11.902343 62.101562 6.5 17.199219 16.597657 32.597657 29.597657 45.398438 12.800781 13 28.300781 23.101562 45.300781 29.5 16.300781 6.300781 34.898438 10.699219 62.101562 11.898438 27.296876 1.203124 36 1.5 105.5 1.5s78.199219-.296876 105.5-1.5c27.199219-1.199219 45.898438-5.597657 62.097657-11.898438 34.402343-13.300781 61.601562-40.5 74.902343-74.898438 6.296876-16.300781 10.699219-34.902343 11.898438-62.101562 1.199219-27.300781 1.5-36 1.5-105.5s-.101562-78.199219-1.300781-105.5zm-46.097657 209c-1.101562 25-5.300781 38.5-8.800781 47.5-8.601562 22.300781-26.300781 40-48.601562 48.601562-9 3.5-22.597657 7.699219-47.5 8.796876-27 1.203124-35.097657 1.5-103.398438 1.5s-76.5-.296876-103.402343-1.5c-25-1.097657-38.5-5.296876-47.5-8.796876-11.097657-4.101562-21.199219-10.601562-29.398438-19.101562-8.5-8.300781-15-18.300781-19.101562-29.398438-3.5-9-7.699219-22.601562-8.796876-47.5-1.203124-27-1.5-35.101562-1.5-103.402343s.296876-76.5 1.5-103.398438c1.097657-25 5.296876-38.5 8.796876-47.5 4.101562-11.101562 10.601562-21.199219 19.203124-29.402343 8.296876-8.5 18.296876-15 29.398438-19.097657 9-3.5 22.601562-7.699219 47.5-8.800781 27-1.199219 35.101562-1.5 103.398438-1.5 68.402343 0 76.5.300781 103.402343 1.5 25 1.101562 38.5 5.300781 47.5 8.800781 11.097657 4.097657 21.199219 10.597657 29.398438 19.097657 8.5 8.300781 15 18.300781 19.101562 29.402343 3.5 9 7.699219 22.597657 8.800781 47.5 1.199219 27 1.5 35.097657 1.5 103.398438s-.300781 76.300781-1.5 103.300781zm0 0"/><path d="m256.449219 124.5c-72.597657 0-131.5 58.898438-131.5 131.5s58.902343 131.5 131.5 131.5c72.601562 0 131.5-58.898438 131.5-131.5s-58.898438-131.5-131.5-131.5zm0 216.800781c-47.097657 0-85.300781-38.199219-85.300781-85.300781s38.203124-85.300781 85.300781-85.300781c47.101562 0 85.300781 38.199219 85.300781 85.300781s-38.199219 85.300781-85.300781 85.300781zm0 0"/><path d="m423.851562 119.300781c0 16.953125-13.746093 30.699219-30.703124 30.699219-16.953126 0-30.699219-13.746094-30.699219-30.699219 0-16.957031 13.746093-30.699219 30.699219-30.699219 16.957031 0 30.703124 13.742188 30.703124 30.699219zm0 0"/></symbol><symbol id="icon-phone"><g fill="none" stroke="#fcd400"><rect width="42" height="42" rx="21" stroke="none"/><rect x=".5" y=".5" width="41" height="41" rx="20.5"/></g><path d="M15.966 20.1a14.265 14.265 0 006.17 6.345l2.057-2.115a.73.73 0 01.935-.192 9.537 9.537 0 003.366.577.838.838 0 01.654.288.884.884 0 01.28.673v3.365a.885.885 0 01-.28.673.838.838 0 01-.654.288A15.114 15.114 0 0117.275 25.2 15.978 15.978 0 0112.6 13.661a.884.884 0 01.28-.673.838.838 0 01.654-.288h3.272a.838.838 0 01.654.288.884.884 0 01.28.673 11.166 11.166 0 00.561 3.461 1.073 1.073 0 01-.187.961z"/></symbol><symbol id="icon-train"><g fill="#fcd400"><path d="M43.51 2.352h-5.88A2.354 2.354 0 0035.279 0H14.111a2.354 2.354 0 00-2.351 2.352H5.88A5.886 5.886 0 000 8.232V55.27a3.532 3.532 0 003.528 3.53h5.017L1.314 72.355l2.077 1.107 8-14.993a1.16 1.16 0 00.249-.322l.85-1.7h3.193l-8.49 15.908 2.077 1.107 2.8-5.257h25.246l2.8 5.258 2.084-1.107-8.489-15.91H36.9l.851 1.7a1.155 1.155 0 00.249.322l8 14.993 2.077-1.107L40.846 58.8h5.017a3.532 3.532 0 003.527-3.53V8.232a5.886 5.886 0 00-5.88-5.88zM2.352 35.279h44.686V49.39H2.352zm44.686-2.352H2.352V14.111h44.686zM14.111 2.352h21.168v4.7H14.111zM5.88 4.7h5.88v2.356a2.354 2.354 0 002.352 2.352h21.167a2.354 2.354 0 002.351-2.352V4.7h5.88a3.532 3.532 0 013.528 3.528v3.532H2.352V8.232A3.532 3.532 0 015.88 4.7zm7.448 61.149l1.255-2.349h20.225l1.255 2.352zm20.225-4.7H15.837l2.508-4.7h12.7zm12.309-4.7h-6.271l-.922-1.73a1.175 1.175 0 00-1.035-.624H11.76a1.175 1.175 0 00-1.035.624l-.922 1.73H3.528a1.177 1.177 0 01-1.176-1.176v-3.531h44.686v3.528a1.177 1.177 0 01-1.176 1.176z"/><path d="M12.936 37.63H5.88a1.176 1.176 0 00-1.176 1.176v7.056a1.176 1.176 0 001.176 1.176h7.056a1.176 1.176 0 001.176-1.176v-7.056a1.176 1.176 0 00-1.176-1.176zm-1.176 7.056h-4.7v-4.7h4.7z"/><path d="M43.511 37.63h-7.056a1.176 1.176 0 00-1.176 1.176v7.056a1.176 1.176 0 001.176 1.176h7.056a1.176 1.176 0 001.176-1.176v-7.056a1.176 1.176 0 00-1.176-1.176zm-1.176 7.056h-4.7v-4.7h4.7z"/><path d="M4.704 31.75h39.982a1.176 1.176 0 001.176-1.176V16.463a1.176 1.176 0 00-1.176-1.176H4.704a1.176 1.176 0 00-1.176 1.176v14.111a1.176 1.176 0 001.176 1.176zM5.88 17.639h37.63v11.76H5.88z"/><path d="M30.574 38.806H18.815a3.528 3.528 0 100 7.056h11.76a3.528 3.528 0 000-7.056zm0 4.7H18.815a1.176 1.176 0 110-2.352h11.76a1.176 1.176 0 010 2.352z"/><path d="M8.571 26.215l7.056-7.056 1.663 1.664-7.056 7.055z"/><path d="M20.329 26.216l7.056-7.056 1.663 1.664-7.056 7.055z"/><path d="M32.087 26.218l7.056-7.056 1.663 1.664-7.056 7.055z"/></g></symbol><symbol id="icon-twitter" viewBox="0 0 512 512">
<g>
	<g>
		<path d="M512,97.248c-19.04,8.352-39.328,13.888-60.48,16.576c21.76-12.992,38.368-33.408,46.176-58.016
			c-20.288,12.096-42.688,20.64-66.56,25.408C411.872,60.704,384.416,48,354.464,48c-58.112,0-104.896,47.168-104.896,104.992
			c0,8.32,0.704,16.32,2.432,23.936c-87.264-4.256-164.48-46.08-216.352-109.792c-9.056,15.712-14.368,33.696-14.368,53.056
			c0,36.352,18.72,68.576,46.624,87.232c-16.864-0.32-33.408-5.216-47.424-12.928c0,0.32,0,0.736,0,1.152
			c0,51.008,36.384,93.376,84.096,103.136c-8.544,2.336-17.856,3.456-27.52,3.456c-6.72,0-13.504-0.384-19.872-1.792
			c13.6,41.568,52.192,72.128,98.08,73.12c-35.712,27.936-81.056,44.768-130.144,44.768c-8.608,0-16.864-0.384-25.12-1.44
			C46.496,446.88,101.6,464,161.024,464c193.152,0,298.752-160,298.752-298.688c0-4.64-0.16-9.12-0.384-13.568
			C480.224,136.96,497.728,118.496,512,97.248z"/>
	</g>
</g>
<g>
</g>
<g>
</g>
<g>
</g>
<g>
</g>
<g>
</g>
<g>
</g>
<g>
</g>
<g>
</g>
<g>
</g>
<g>
</g>
<g>
</g>
<g>
</g>
<g>
</g>
<g>
</g>
<g>
</g>
</symbol><symbol id="icon-wrench"><path d="M61.075 42.938a1.505 1.505 0 00-1.505 1.505v18.689H47.144V37.157h13.931a1.506 1.506 0 100-3.011H45.638a1.505 1.505 0 00-1.505 1.505v.762l-9.586-9.586a5.126 5.126 0 00-5.413-1.173 15.918 15.918 0 00-3.42-25.47 1.505 1.505 0 00-2.226 1.321V14.9H12.702V1.5A1.505 1.505 0 0010.476.183a15.919 15.919 0 00-2.637 26.176v3.922h-2.72A5.125 5.125 0 00.002 35.4v.073a5.1 5.1 0 001.5 3.614 5.1 5.1 0 00-1.5 3.613v.073a5.1 5.1 0 001.5 3.614A5.1 5.1 0 00.002 50v.073a5.1 5.1 0 001.5 3.614 5.1 5.1 0 00-1.5 3.614v.073a5.125 5.125 0 005.12 5.12h2.963a10.188 10.188 0 009.925 7.949h.175a10.184 10.184 0 009.917-7.943h12.019a1.506 1.506 0 100-3.011h-11.77V47.065a1.506 1.506 0 00-3.011 0v13.214a7.166 7.166 0 01-7.158 7.158h-.175a7.174 7.174 0 01-6.805-4.937h2.369a5.125 5.125 0 005.12-5.12v-.073a5.1 5.1 0 00-1.5-3.614 5.1 5.1 0 001.5-3.614V50a5.1 5.1 0 00-1.5-3.614 5.1 5.1 0 001.5-3.614V42.7a5.1 5.1 0 00-1.5-3.614 5.1 5.1 0 001.5-3.614V35.4a5.125 5.125 0 00-5.12-5.12h-2.72v-4.643a1.505 1.505 0 00-.59-1.2 12.906 12.906 0 01-.569-20.076V16.41a1.505 1.505 0 001.51 1.505h13.8a1.505 1.505 0 001.5-1.505V4.361a12.906 12.906 0 01-.568 20.081 1.506 1.506 0 00-.59 1.2V28.8l-4.012 4a5.119 5.119 0 000 7.24l.052.052a5.125 5.125 0 007.24 0l3-3a1.505 1.505 0 00-2.132-2.122l-3 3a2.111 2.111 0 01-2.982 0l-.052-.052a2.108 2.108 0 010-2.983l5.975-5.975a2.11 2.11 0 012.98 0l11.72 11.712v23.965a1.505 1.505 0 001.505 1.505h15.437a1.505 1.505 0 001.505-1.505V44.443a1.505 1.505 0 00-1.505-1.505zm-45.4-.236v.073a2.111 2.111 0 01-2.109 2.109h-8.45a2.111 2.111 0 01-2.109-2.109V42.7a2.111 2.111 0 012.109-2.109h8.45a2.111 2.111 0 012.113 2.109zm0 7.3v.073a2.111 2.111 0 01-2.109 2.109h-8.45a2.111 2.111 0 01-2.109-2.109V50a2.111 2.111 0 012.109-2.109h8.45A2.111 2.111 0 0115.679 50zm0 7.374a2.111 2.111 0 01-2.109 2.109h-8.45a2.111 2.111 0 01-2.109-2.109v-.073A2.111 2.111 0 015.12 55.2h8.45a2.111 2.111 0 012.109 2.109v.073zm0-21.978v.073a2.111 2.111 0 01-2.109 2.109h-8.45a2.111 2.111 0 01-2.109-2.109V35.4a2.111 2.111 0 012.109-2.109h8.45a2.111 2.111 0 012.113 2.109z"/></symbol></svg>