<?xml version="1.0" encoding="UTF-8"?><!DOCTYPE svg PUBLIC "-//W3C//DTD SVG 1.1//EN" "http://www.w3.org/Graphics/SVG/1.1/DTD/svg11.dtd"><svg xmlns="http://www.w3.org/2000/svg" xmlns:xlink="http://www.w3.org/1999/xlink"><symbol id="icon-arrow-down"><path d="M4.842 35.2L.001 27.789h3.631V0h2.421v27.79h3.63z" fill="#fff"/></symbol><symbol id="icon-phone"><g fill="none" stroke="#fcd400"><rect width="42" height="42" rx="21" stroke="none"/><rect x=".5" y=".5" width="41" height="41" rx="20.5"/></g><path d="M15.966 20.1a14.265 14.265 0 006.17 6.345l2.057-2.115a.73.73 0 01.935-.192 9.537 9.537 0 003.366.577.838.838 0 01.654.288.884.884 0 01.28.673v3.365a.885.885 0 01-.28.673.838.838 0 01-.654.288A15.114 15.114 0 0117.275 25.2 15.978 15.978 0 0112.6 13.661a.884.884 0 01.28-.673.838.838 0 01.654-.288h3.272a.838.838 0 01.654.288.884.884 0 01.28.673 11.166 11.166 0 00.561 3.461 1.073 1.073 0 01-.187.961z"/></symbol><symbol id="icon-train"><g fill="#fcd400"><path d="M43.51 2.352h-5.88A2.354 2.354 0 0035.279 0H14.111a2.354 2.354 0 00-2.351 2.352H5.88A5.886 5.886 0 000 8.232V55.27a3.532 3.532 0 003.528 3.53h5.017L1.314 72.355l2.077 1.107 8-14.993a1.16 1.16 0 00.249-.322l.85-1.7h3.193l-8.49 15.908 2.077 1.107 2.8-5.257h25.246l2.8 5.258 2.084-1.107-8.489-15.91H36.9l.851 1.7a1.155 1.155 0 00.249.322l8 14.993 2.077-1.107L40.846 58.8h5.017a3.532 3.532 0 003.527-3.53V8.232a5.886 5.886 0 00-5.88-5.88zM2.352 35.279h44.686V49.39H2.352zm44.686-2.352H2.352V14.111h44.686zM14.111 2.352h21.168v4.7H14.111zM5.88 4.7h5.88v2.356a2.354 2.354 0 002.352 2.352h21.167a2.354 2.354 0 002.351-2.352V4.7h5.88a3.532 3.532 0 013.528 3.528v3.532H2.352V8.232A3.532 3.532 0 015.88 4.7zm7.448 61.149l1.255-2.349h20.225l1.255 2.352zm20.225-4.7H15.837l2.508-4.7h12.7zm12.309-4.7h-6.271l-.922-1.73a1.175 1.175 0 00-1.035-.624H11.76a1.175 1.175 0 00-1.035.624l-.922 1.73H3.528a1.177 1.177 0 01-1.176-1.176v-3.531h44.686v3.528a1.177 1.177 0 01-1.176 1.176z"/><path d="M12.936 37.63H5.88a1.176 1.176 0 00-1.176 1.176v7.056a1.176 1.176 0 001.176 1.176h7.056a1.176 1.176 0 001.176-1.176v-7.056a1.176 1.176 0 00-1.176-1.176zm-1.176 7.056h-4.7v-4.7h4.7z"/><path d="M43.511 37.63h-7.056a1.176 1.176 0 00-1.176 1.176v7.056a1.176 1.176 0 001.176 1.176h7.056a1.176 1.176 0 001.176-1.176v-7.056a1.176 1.176 0 00-1.176-1.176zm-1.176 7.056h-4.7v-4.7h4.7z"/><path d="M4.704 31.75h39.982a1.176 1.176 0 001.176-1.176V16.463a1.176 1.176 0 00-1.176-1.176H4.704a1.176 1.176 0 00-1.176 1.176v14.111a1.176 1.176 0 001.176 1.176zM5.88 17.639h37.63v11.76H5.88z"/><path d="M30.574 38.806H18.815a3.528 3.528 0 100 7.056h11.76a3.528 3.528 0 000-7.056zm0 4.7H18.815a1.176 1.176 0 110-2.352h11.76a1.176 1.176 0 010 2.352z"/><path d="M8.571 26.215l7.056-7.056 1.663 1.664-7.056 7.055z"/><path d="M20.329 26.216l7.056-7.056 1.663 1.664-7.056 7.055z"/><path d="M32.087 26.218l7.056-7.056 1.663 1.664-7.056 7.055z"/></g></symbol><symbol id="icon-wrench"><path d="M61.075 42.938a1.505 1.505 0 00-1.505 1.505v18.689H47.144V37.157h13.931a1.506 1.506 0 100-3.011H45.638a1.505 1.505 0 00-1.505 1.505v.762l-9.586-9.586a5.126 5.126 0 00-5.413-1.173 15.918 15.918 0 00-3.42-25.47 1.505 1.505 0 00-2.226 1.321V14.9H12.702V1.5A1.505 1.505 0 0010.476.183a15.919 15.919 0 00-2.637 26.176v3.922h-2.72A5.125 5.125 0 00.002 35.4v.073a5.1 5.1 0 001.5 3.614 5.1 5.1 0 00-1.5 3.613v.073a5.1 5.1 0 001.5 3.614A5.1 5.1 0 00.002 50v.073a5.1 5.1 0 001.5 3.614 5.1 5.1 0 00-1.5 3.614v.073a5.125 5.125 0 005.12 5.12h2.963a10.188 10.188 0 009.925 7.949h.175a10.184 10.184 0 009.917-7.943h12.019a1.506 1.506 0 100-3.011h-11.77V47.065a1.506 1.506 0 00-3.011 0v13.214a7.166 7.166 0 01-7.158 7.158h-.175a7.174 7.174 0 01-6.805-4.937h2.369a5.125 5.125 0 005.12-5.12v-.073a5.1 5.1 0 00-1.5-3.614 5.1 5.1 0 001.5-3.614V50a5.1 5.1 0 00-1.5-3.614 5.1 5.1 0 001.5-3.614V42.7a5.1 5.1 0 00-1.5-3.614 5.1 5.1 0 001.5-3.614V35.4a5.125 5.125 0 00-5.12-5.12h-2.72v-4.643a1.505 1.505 0 00-.59-1.2 12.906 12.906 0 01-.569-20.076V16.41a1.505 1.505 0 001.51 1.505h13.8a1.505 1.505 0 001.5-1.505V4.361a12.906 12.906 0 01-.568 20.081 1.506 1.506 0 00-.59 1.2V28.8l-4.012 4a5.119 5.119 0 000 7.24l.052.052a5.125 5.125 0 007.24 0l3-3a1.505 1.505 0 00-2.132-2.122l-3 3a2.111 2.111 0 01-2.982 0l-.052-.052a2.108 2.108 0 010-2.983l5.975-5.975a2.11 2.11 0 012.98 0l11.72 11.712v23.965a1.505 1.505 0 001.505 1.505h15.437a1.505 1.505 0 001.505-1.505V44.443a1.505 1.505 0 00-1.505-1.505zm-45.4-.236v.073a2.111 2.111 0 01-2.109 2.109h-8.45a2.111 2.111 0 01-2.109-2.109V42.7a2.111 2.111 0 012.109-2.109h8.45a2.111 2.111 0 012.113 2.109zm0 7.3v.073a2.111 2.111 0 01-2.109 2.109h-8.45a2.111 2.111 0 01-2.109-2.109V50a2.111 2.111 0 012.109-2.109h8.45A2.111 2.111 0 0115.679 50zm0 7.374a2.111 2.111 0 01-2.109 2.109h-8.45a2.111 2.111 0 01-2.109-2.109v-.073A2.111 2.111 0 015.12 55.2h8.45a2.111 2.111 0 012.109 2.109v.073zm0-21.978v.073a2.111 2.111 0 01-2.109 2.109h-8.45a2.111 2.111 0 01-2.109-2.109V35.4a2.111 2.111 0 012.109-2.109h8.45a2.111 2.111 0 012.113 2.109z"/></symbol></svg>